<svg width="16" height="17" viewBox="0 0 16 17" fill="none" xmlns="http://www.w3.org/2000/svg">
<path fill-rule="evenodd" clip-rule="evenodd" d="M15.6095 2.35671C16.1302 1.83601 16.1302 0.99179 15.6095 0.471091C15.0888 -0.0496083 14.2446 -0.0496083 13.7239 0.471091L8 6.19495L2.27614 0.471092C1.75544 -0.0496071 0.911223 -0.0496071 0.390524 0.471092C-0.130175 0.991791 -0.130175 1.83601 0.390524 2.35671L6.11438 8.08057L0.390524 13.8044C-0.130175 14.3251 -0.130175 15.1693 0.390524 15.69C0.911223 16.2107 1.75544 16.2107 2.27614 15.69L8 9.96619L13.7239 15.69C14.2446 16.2107 15.0888 16.2107 15.6095 15.69C16.1302 15.1693 16.1302 14.3251 15.6095 13.8044L9.88562 8.08057L15.6095 2.35671Z" fill="#BFBFBF"/>
</svg>
