<svg width="20" height="25" viewBox="0 0 20 25" fill="none" xmlns="http://www.w3.org/2000/svg">
<path fill-rule="evenodd" clip-rule="evenodd" d="M10.8407 24.4752C10.6207 24.7038 10.3172 24.833 9.99996 24.833C9.68274 24.833 9.37885 24.7035 9.1589 24.4749L9.05878 24.3693C9.05878 24.3693 8.90495 24.2052 8.78992 24.08C8.55993 23.8296 8.23332 23.4677 7.84224 23.0164C7.06122 22.1151 6.0175 20.8511 4.97114 19.4037C3.92743 17.96 2.86468 16.3112 2.05871 14.6419C1.26154 12.9907 0.666626 11.2207 0.666626 9.56028C0.666626 4.44987 4.85973 0.333008 9.99996 0.333008C15.1402 0.333008 19.3333 4.44987 19.3333 9.56028C19.3333 11.2207 18.7384 12.9907 17.9412 14.6419C17.1352 16.3112 16.0725 17.96 15.0288 19.4037C13.9824 20.8511 12.9387 22.1151 12.1577 23.0164C11.7666 23.4677 11.44 23.8296 11.21 24.08C11.21 24.08 10.9035 24.4085 10.8407 24.4752ZM2.99996 9.56028C2.99996 5.76719 6.11954 2.66634 9.99996 2.66634C13.8804 2.66634 17 5.76719 17 9.56028C17 10.7091 16.574 12.1069 15.84 13.6274C15.1147 15.1296 14.1358 16.6563 13.1378 18.0367C12.1425 19.4135 11.1446 20.6226 10.3943 21.4883C10.2534 21.651 10.1213 21.8013 9.99996 21.9381C9.87857 21.8013 9.74656 21.651 9.60559 21.4883C8.85537 20.6226 7.85742 19.4135 6.86211 18.0367C5.86415 16.6563 4.88524 15.1296 4.15996 13.6274C3.42587 12.1069 2.99996 10.7091 2.99996 9.56028Z" fill="#7F713E"/>
<path fill-rule="evenodd" clip-rule="evenodd" d="M6.49996 9.66634C6.49996 7.73334 8.06696 6.16634 9.99996 6.16634C11.933 6.16634 13.5 7.73334 13.5 9.66634C13.5 11.5993 11.933 13.1663 9.99996 13.1663C8.06696 13.1663 6.49996 11.5993 6.49996 9.66634ZM8.83329 9.66634C8.83329 9.02201 9.35563 8.49967 9.99996 8.49967C10.6443 8.49967 11.1666 9.02201 11.1666 9.66634C11.1666 10.3107 10.6443 10.833 9.99996 10.833C9.35563 10.833 8.83329 10.3107 8.83329 9.66634Z" fill="#7F713E"/>
</svg>
