<svg width="26" height="20" viewBox="0 0 26 20" fill="none" xmlns="http://www.w3.org/2000/svg">
<path fill-rule="evenodd" clip-rule="evenodd" d="M3.66663 0.666504C1.73363 0.666504 0.166626 2.23351 0.166626 4.1665V15.8332C0.166626 17.7662 1.73363 19.3332 3.66663 19.3332H22.3333C24.2663 19.3332 25.8333 17.7662 25.8333 15.8332V4.1665C25.8333 2.23351 24.2663 0.666504 22.3333 0.666504H3.66663ZM2.49996 4.47785V15.8332C2.49996 16.4775 3.02229 16.9998 3.66663 16.9998H22.3333C22.9776 16.9998 23.5 16.4775 23.5 15.8332V4.47794L15.1488 10.9733C13.8849 11.9563 12.1151 11.9563 10.8512 10.9733L2.49996 4.47785ZM21.5998 2.99984H4.40024L12.2838 9.13146C12.705 9.45913 13.295 9.45913 13.7163 9.13146L21.5998 2.99984Z" fill="#7F713E"/>
</svg>
