<svg width="20" height="26" viewBox="0 0 20 26" fill="none" xmlns="http://www.w3.org/2000/svg">
<path d="M9.99996 21.167C10.9665 21.167 11.75 20.3835 11.75 19.417C11.75 18.4505 10.9665 17.667 9.99996 17.667C9.03346 17.667 8.24996 18.4505 8.24996 19.417C8.24996 20.3835 9.03346 21.167 9.99996 21.167Z" fill="#7F713E"/>
<path fill-rule="evenodd" clip-rule="evenodd" d="M4.16663 25.8337C2.23363 25.8337 0.666626 24.2667 0.666626 22.3337V3.66699C0.666626 1.734 2.23363 0.166992 4.16663 0.166992H15.8333C17.7663 0.166992 19.3333 1.73399 19.3333 3.66699V22.3337C19.3333 24.2667 17.7663 25.8337 15.8333 25.8337H4.16663ZM2.99996 22.3337C2.99996 22.978 3.52229 23.5003 4.16663 23.5003H15.8333C16.4776 23.5003 17 22.978 17 22.3337L17 3.66699C17 3.02266 16.4776 2.50032 15.8333 2.50032L4.16663 2.50033C3.52229 2.50033 2.99996 3.02266 2.99996 3.66699L2.99996 22.3337Z" fill="#7F713E"/>
</svg>
